<svg width="1200" height="630" viewBox="0 0 1200 630" xmlns="http://www.w3.org/2000/svg">
  <rect width="1200" height="630" fill="#f7fff0" />
  <rect x="20" y="20" width="1160" height="590" rx="40" fill="none" stroke="#ccff00" stroke-width="12" />
  <g transform="translate(600, 240) scale(1.5)">
    <path d="M0,80 C-40,80 -70,50 -70,10 C-70,-40 -30,-60 0,-60 C30,-60 70,-40 70,10 C70,50 40,80 0,80 Z" fill="#ccff00" stroke="#2d4a22" stroke-width="4" />
    <path d="M0,-60 C10,-80 30,-80 40,-60 C30,-40 10,-40 0,-60" fill="#99cc00" stroke="#2d4a22" stroke-width="3" />
    <path d="M0,-60 L0,-70" stroke="#2d4a22" stroke-width="5" stroke-linecap="round" />
    <circle cx="50" cy="-30" r="5" fill="white" />
    <circle cx="-40" cy="40" r="3" fill="white" />
  </g>
  <text x="600" y="480" font-family="sans-serif" font-weight="900" font-size="120" text-anchor="middle" fill="#2d4a22">
    えほんの森
  </text>
  <text x="600" y="550" font-family="sans-serif" font-weight="900" font-size="30" text-anchor="middle" fill="#99cc00">
    FRESH APPLE STORIES
  </text>
</svg>
